<?xml version="1.0" encoding="UTF-8"?><svg id="Layer_2" xmlns="http://www.w3.org/2000/svg" xmlns:xlink="http://www.w3.org/1999/xlink" viewBox="0 0 1551.75 432.49"><defs><filter id="outer-glow-1" filterUnits="userSpaceOnUse"><feOffset dx="0" dy="0"/><feGaussianBlur result="blur" stdDeviation="19.31"/><feFlood flood-color="#34c4e7" flood-opacity=".75"/><feComposite in2="blur" operator="in"/><feComposite in="SourceGraphic"/></filter><filter id="outer-glow-2" filterUnits="userSpaceOnUse"><feOffset dx="0" dy="0"/><feGaussianBlur result="blur-2" stdDeviation="19.31"/><feFlood flood-color="#34c4e7" flood-opacity=".75"/><feComposite in2="blur-2" operator="in"/><feComposite in="SourceGraphic"/></filter><filter id="outer-glow-3" filterUnits="userSpaceOnUse"><feOffset dx="0" dy="0"/><feGaussianBlur result="blur-3" stdDeviation="19.31"/><feFlood flood-color="#34c4e7" flood-opacity=".75"/><feComposite in2="blur-3" operator="in"/><feComposite in="SourceGraphic"/></filter><filter id="outer-glow-4" filterUnits="userSpaceOnUse"><feOffset dx="0" dy="0"/><feGaussianBlur result="blur-4" stdDeviation="19.31"/><feFlood flood-color="#34c4e7" flood-opacity=".75"/><feComposite in2="blur-4" operator="in"/><feComposite in="SourceGraphic"/></filter></defs><g id="Layer_1-2"><g><g style="filter:url(#outer-glow-1);"><path d="M163.42,350.14h-24.39V128.99c0-3.12,.87-12.27,2.61-27.45l-47.66,215.8h-5.21L41.11,101.54c1.74,15.33,2.61,24.47,2.61,27.45v221.16H19.32V.89h24.02l47.29,227.18c.25,1.19,.5,4.54,.75,10.04,0-2.23,.25-5.58,.74-10.04L139.4,.89h24.02V350.14Z" style="fill:#fff;"/><path d="M326.69,325.37c0,7.29-1.99,13.24-5.96,17.85-3.97,4.61-9,6.92-15.08,6.92h-75.03c-6.08,0-11.05-2.3-14.89-6.92-3.85-4.61-5.77-10.56-5.77-17.85V25.66c0-7.29,1.92-13.24,5.77-17.85,3.84-4.61,8.81-6.92,14.89-6.92h75.03c6.08,0,11.11,2.31,15.08,6.92,3.97,4.61,5.96,10.57,5.96,17.85V106.9h-26.06V28.34h-64.79V322.7h64.79v-85.92h26.06v88.6Z" style="fill:#fff;"/><path d="M485.49,325.37c0,7.29-1.89,13.24-5.68,17.85-3.79,4.61-8.72,6.92-14.8,6.92h-73.35c-6.08,0-11.08-2.3-14.99-6.92-3.91-4.61-5.86-10.56-5.86-17.85v-88.6h25.88v85.92h62.93v-83.24l-80.43-116.49c-5.58-8.03-8.38-16.88-8.38-26.56V25.66c0-7.29,1.96-13.24,5.86-17.85,3.91-4.61,8.9-6.92,14.99-6.92h73.35c6.08,0,11.01,2.31,14.8,6.92,3.78,4.61,5.68,10.57,5.68,17.85V106.9h-25.88V28.34h-62.93V101.99l80.8,116.49c5.33,7.74,8,16.44,8,26.11v80.79Z" style="fill:#fff;"/><path d="M648.77,350.14h-25.69l-10.24-77.66h-57.9l-10.24,77.66h-24.95v-.89L571.69,0h25.51l51.57,350.14Zm-39.28-105.11l-25.51-189.24-25.69,189.24h51.2Z" style="fill:#fff;"/><path d="M784.86,350.14h-24.76V159.56l-54.55,1.79v188.8h-24.76V133.01h24.76v6.03c9.68-1.49,19.42-3.05,29.23-4.69,11.92-1.79,21.72-2.68,29.42-2.68,13.78,0,20.66,8.11,20.66,24.33v194.15Z" style="fill:#fff;"/><path d="M927.28,350.14h-24.39v-6.03c-9.81,1.64-19.61,3.2-29.42,4.69-12.17,1.79-21.91,2.68-29.23,2.68-13.53,0-20.29-8.03-20.29-24.1v-79.22c0-16.66,7.01-24.99,21.04-24.99h58.27v-65.39h-53.24v37.04h-24.02v-36.6c0-16.81,6.95-25.22,20.85-25.22h59.57c13.9,0,20.85,8.41,20.85,25.22v191.92Zm-24.02-27v-76.77h-55.29v78.11l55.29-1.34Z" style="fill:#fff;"/><path d="M993.74,350.14h-24.39V.89h24.39V350.14Z" style="fill:#fff;"/><path d="M1137.83,133.01l-43.56,215.35-18.06,84.13h-24.39l18.24-84.13-44.68-215.35h25.5l30.9,170.94,31.28-170.94h24.76Z" style="fill:#fff;"/><path d="M1265.73,324.93c0,16.81-7.01,25.22-21.04,25.22h-56.78c-14.03,0-21.04-8.4-21.04-25.22v-49.32h24.39v48.87h50.08v-43.29l-64.79-63.6c-6.21-5.95-9.31-13.69-9.31-23.21v-36.15c0-16.81,7.01-25.22,21.04-25.22h56.04c14.02,0,21.04,8.41,21.04,25.22v43.29h-24.02v-42.85h-50.08v37.94l65.35,63.6c6.08,5.8,9.12,13.69,9.12,23.66v41.06Z" style="fill:#fff;"/><path d="M1406.29,324.93c0,16.81-6.95,25.22-20.85,25.22h-59.57c-13.9,0-20.85-8.4-20.85-25.22V158.22c0-16.81,6.95-25.22,20.85-25.22h59.57c13.9,0,20.85,8.41,20.85,25.22v78.11l-8.38,10.49h-68.88v78.55h53.25v-39.72h24.02v39.28Zm-24.02-101.76v-65.39h-53.25v65.39h53.25Z" style="fill:#fff;"/><path d="M1542.01,204.42h-24.39v-44.86l-45.61,1.79v188.8h-24.76V133.01h24.76v6.03c8.19-1.49,16.44-3.05,24.76-4.69,9.93-1.79,18.18-2.68,24.76-2.68,13.65,0,20.48,8.11,20.48,24.33v48.43Z" style="fill:#fff;"/></g><g style="filter:url(#outer-glow-2);"><path d="M1017.4,399.39H9.65c-5.33,0-9.65-4.32-9.65-9.65s4.32-9.65,9.65-9.65H1017.4c5.33,0,9.65,4.32,9.65,9.65s-4.32,9.65-9.65,9.65Z" style="fill:#2bc0d3;"/></g><g style="filter:url(#outer-glow-3);"><path d="M1542.1,399.39h-416.69c-5.33,0-9.65-4.32-9.65-9.65s4.32-9.65,9.65-9.65h416.69c5.33,0,9.65,4.32,9.65,9.65s-4.32,9.65-9.65,9.65Z" style="fill:#2bc0d3;"/></g><g style="filter:url(#outer-glow-4);"><path d="M1483.27,62.95h-455.28c-5.33,0-9.65-4.32-9.65-9.65s4.32-9.65,9.65-9.65h455.28c5.33,0,9.65,4.32,9.65,9.65s-4.32,9.65-9.65,9.65Z" style="fill:#2bc0d3;"/><path d="M928.46,62.95h-198.39c-5.33,0-9.65-4.32-9.65-9.65s4.32-9.65,9.65-9.65h198.39c5.33,0,9.65,4.32,9.65,9.65s-4.32,9.65-9.65,9.65Z" style="fill:#2bc0d3;"/><path d="M700.66,92.36c-21.54,0-39.07-17.53-39.07-39.07s17.53-39.07,39.07-39.07,39.07,17.53,39.07,39.07-17.53,39.07-39.07,39.07Zm0-58.83c-10.9,0-19.76,8.86-19.76,19.76s8.86,19.76,19.76,19.76,19.76-8.86,19.76-19.76-8.86-19.76-19.76-19.76Z" style="fill:#2bc0d3;"/><path d="M1512.68,92.36c-21.54,0-39.07-17.53-39.07-39.07s17.53-39.07,39.07-39.07,39.07,17.53,39.07,39.07-17.53,39.07-39.07,39.07Zm0-58.83c-10.9,0-19.76,8.86-19.76,19.76s8.86,19.76,19.76,19.76,19.76-8.86,19.76-19.76-8.86-19.76-19.76-19.76Z" style="fill:#2bc0d3;"/></g></g></g></svg>