<?xml version="1.0" encoding="UTF-8"?><svg id="Layer_1" xmlns="http://www.w3.org/2000/svg" xmlns:xlink="http://www.w3.org/1999/xlink" viewBox="0 0 1920 1080"><defs><style>.cls-1{clip-path:url(#clippath-1);}.cls-2{fill:url(#radial-gradient);}.cls-3{fill:#0d0d19;}.cls-4{opacity:.66;}.cls-5{clip-path:url(#clippath);}.cls-6{fill:none;}</style><clipPath id="clippath"><rect class="cls-6" width="1920" height="1080"/></clipPath><radialGradient id="radial-gradient" cx="948.46" cy="540" fx="948.46" fy="540" r="948.01" gradientTransform="translate(4.26 142.49) scale(1.01 .74)" gradientUnits="userSpaceOnUse"><stop offset="0" stop-color="#2ec0d3" stop-opacity=".3"/><stop offset=".16" stop-color="#2ec0d3" stop-opacity=".23"/><stop offset=".48" stop-color="#2ec0d3" stop-opacity=".1"/><stop offset=".77" stop-color="#2ec0d3" stop-opacity=".03"/><stop offset="1" stop-color="#2ec0d3" stop-opacity="0"/></radialGradient><clipPath id="clippath-1"><ellipse class="cls-6" cx="935.8" cy="728.15" rx="1110.68" ry="825.86"/></clipPath></defs><g class="cls-5"><g><rect class="cls-3" width="1920" height="1454.91"/><g><ellipse class="cls-2" cx="960" cy="540" rx="960" ry="708.38"/><g class="cls-1"><g class="cls-4"><path class="cls-3" d="M1129.6-63.95c15.34,4.37,30.14,9.42,42.28,20.77,39.32,36.78,29.81,102.5-18.84,125.63-8,3.8-10.84,8.45-10.68,16.99,.55,29.64,.35,59.3,.81,88.94,.18,11.53-3.37,20.67-11.79,28.94-31.55,30.95-62.46,62.55-93.96,93.55-6.26,6.16-8.65,12.76-8.63,21.24,.17,102.66,.02,205.32,.45,307.97,.05,12.35-4.77,21.12-13.05,29.23-23.02,22.53-46.03,45.08-68.59,68.07-3.41,3.47-6.18,9.34-6.2,14.12-.37,88.4-.28,176.8-.25,265.21,0,2.16,.37,4.32,.76,8.68,6.67-6.57,11.45-12.63,17.46-16.97,22.39-16.18,31.7-37.39,26.81-64.72-.4-2.21-.33-4.59,0-6.83,1.82-12.59-.1-21.76-13.78-28.32-13.73-6.58-17.82-25.03-12.42-39.77,5.63-15.37,18.97-23.77,36.17-22.78,15.54,.9,27.59,11.34,31.17,26.99,3.57,15.6-2.77,31.87-17.12,38.21-9.44,4.17-11.42,9.82-11.03,19.09,.66,15.66,.75,31.4-.17,47.03-.33,5.65-2.98,12.25-6.77,16.41-12.26,13.49-24.62,27.17-38.68,38.65-13.2,10.78-13.7,23.56-11.7,39.71,8.46-8.15,16.18-15.4,23.69-22.86,22.04-21.92,44.16-43.75,65.78-66.08,3.35-3.45,5.93-9.26,6-14.02,.51-35.07,.16-70.15,.42-105.22,.05-6.32-2.14-9.7-7.87-12.43-19.18-9.13-26.17-32.14-15.62-49.8,10.62-17.76,33.89-22.44,51.42-10.35,16.02,11.05,19.15,34.7,6.11,50.66-3.46,4.23-8.43,7.89-13.46,10.02-6.15,2.6-7.69,6.36-7.66,12.48,.17,35.65-.14,71.29,.19,106.94,.08,8.42-2.75,14.56-8.6,20.35-31.43,31.07-62.8,62.22-93.71,93.81-3.92,4.01-7.11,10.74-7.14,16.23-.43,84.12-.29,168.25-.25,252.37,0,2.2,.26,4.4,.48,7.95,2.54-1.89,4.37-2.94,5.82-4.37,19.24-19.06,38.58-38.03,57.49-57.42,2.86-2.93,5.19-7.78,5.27-11.79,.49-24.23-.04-48.48,.44-72.71,.14-7.08-4.18-8.27-8.96-10.34-22.53-9.72-36.1-26.41-38.05-51.24-2.04-26.06,8.24-46.41,31.22-59.01,18.32-10.05,37.7-10.34,56.57-.84,5.5,2.77,8.77,2.22,13.18-2.22,49.64-49.97,99.52-99.68,149.32-149.49,8.56-8.56,7.8-12.62-3.06-17.14-24.71-10.29-38.43-31.18-38.19-58.15,.22-24.39,15.28-46.16,38.98-55.05,6.74-2.53,9.11-5.94,8.91-13.12-.71-24.78-.95-49.58-.97-74.38,0-7.38-2.35-12.91-7.65-18.1-29.31-28.75-58.23-57.89-87.58-86.59-6.61-6.46-9.59-13.36-9.53-22.64,.32-42.49,.06-84.98,.24-127.47,.03-6.39-1.59-10.31-7.98-13.21-15.53-7.06-23.14-23.59-19.34-39.64,4-16.87,18.16-27.71,35.55-27.22,16.38,.46,30.33,12.17,33.3,27.95,3.22,17.1-4.82,32.75-21.1,39.54-5.6,2.34-7.93,5.23-7.66,11.38,.47,10.67,.13,21.38,.13,33.91,3.2-2.62,4.95-3.83,6.44-5.31,25.64-25.58,49.84-52.83,77.31-76.24,20.28-17.28,28.09-36.23,24.77-61.65-1.14-8.69-.54-17.68-.03-26.49,.44-7.72-1.8-13.63-7.65-18.86-7.43-6.64-14.47-13.77-21.15-21.17-4.35-4.82-7.88-5.37-13.85-2.28-18.35,9.48-39.98,1.46-47.88-17.01-7.99-18.7,.99-40.84,19.87-46.98,12.78-4.16,25.4-3.17,35.94,6.56,10.32,9.51,14.15,21.15,10.25,34.81-1.68,5.88-.54,10.28,3.97,14.54,9.11,8.62,18.24,17.3,26.48,26.72,3.43,3.92,6.36,9.75,6.51,14.81,.7,22.79,.83,45.63-.02,68.4-.22,5.83-3.44,12.83-7.58,17.04-34.2,34.74-68.7,69.21-103.7,103.15-9.11,8.83-11.46,18.18-8.67,31.03,2.36-1.93,4.31-3.26,5.96-4.9,40.98-40.88,82.06-81.65,122.64-122.92,3.88-3.94,6.46-10.95,6.52-16.57,.51-47.62,.14-95.24,.44-142.86,.05-7.84-2.06-12.3-9.61-15.75-15.12-6.92-22.16-23.03-18.68-39.3,3.17-14.81,17.72-26.68,33.27-27.15,16.46-.49,30.32,9.7,35.02,25.75,4.82,16.45-2.83,34.28-18.9,41.27-6.79,2.95-8.55,6.9-8.52,13.62,.18,48.76-.06,97.53,.26,146.29,.06,9.79-2.74,17.09-9.88,24.14-44.24,43.66-87.98,87.83-132.07,131.64-5.48,5.44-6.93,11.34-7.89,18.84-2.67,20.99,5.15,35.85,20.74,49.69,21.93,19.46,41.86,41.18,62.67,61.9,1.92,1.91,4.02,3.65,7.28,4.93-2.17-17.11,7.64-35.79-10.22-50.22-11.03-8.91-20.78-19.55-30.21-30.22-3.6-4.07-6.18-10.26-6.61-15.69-.99-12.46-.13-25.06-.49-37.59-.23-7.85,3.27-13.43,8.59-18.68,33.68-33.24,67.09-66.75,100.93-99.83,7.49-7.32,10.79-15.14,10.66-25.69-.42-35.07,.01-70.14-.08-105.22,0-3.29-1.22-6.63-2.15-9.87-5.17-18.04,4.21-36.8,21.54-42.89,18.84-6.62,37.54,1.8,44.83,20.19,6.92,17.44-1.1,37.72-17.91,45.3-7.67,3.46-17.54,3.21-33.64-1.12-.19,3.73-.52,7.26-.52,10.79,0,30.8-.09,61.59,.22,92.39,.08,7.96-2.27,14.07-8.02,19.74-34.12,33.62-67.87,67.6-102,101.2-6.57,6.47-8.54,13.62-9.61,22.65-2.67,22.57,3.42,40.55,22.18,53.99,4,2.87,7.16,6.91,12.65,12.33,0-9.75,.28-16.69-.07-23.61-.44-8.58,2.58-15.22,8.69-21.29,44.7-44.42,89.11-89.13,133.89-133.48,6.36-6.3,9.31-12.79,9.19-21.8-.4-30.79,.52-61.61-.38-92.38-.43-14.72,7.04-23.84,16.59-32.87,11.8-11.15,23.52-22.43,34.66-34.24,2.7-2.87,4.64-8.2,4.15-12.05-3.26-25.79,5.54-46.27,27.15-60.12,21.87-14.02,45.1-13.75,66.84,.27,29.51,19.02,35.99,60.22,14.85,87.88-21.62,28.3-62.2,32.29-89.19,8.4-4.56-4.04-7.04-3.9-11.06,.33-10.01,10.54-20.9,20.27-30.51,31.16-3.57,4.05-6.32,10.36-6.42,15.69-.59,33.07-.48,66.16-.21,99.23,.07,8.61-2.69,15.3-8.75,21.31-44.75,44.35-89.29,88.92-134.1,133.21-6.57,6.49-9.32,13.44-9.2,22.73,.73,58.14,1.1,116.28,1.28,174.42,.02,7.8,2.12,12.44,9.93,15.55,25.94,10.33,38.76,31.13,38.32,60.42-.35,23.5-15.57,44.67-39.67,53.49-6.96,2.54-8.61,5.89-8.87,12.89-.2,5.36-2.63,11.91-6.35,15.67-51.7,52.32-103.71,104.34-155.9,156.16-4.84,4.81-5.72,8.56-3.13,14.77,13.29,31.89-1.22,66.48-33.49,79.46-7.26,2.92-9.86,6.72-9.71,14.51,.48,24.23-.06,48.48,.3,72.71,.14,9.22-2.85,16.36-9.37,22.81-26.57,26.25-52.8,52.85-79.38,79.1-5,4.94-7.42,10.03-7.42,17.23,.13,291.16,.12,582.32-.07,873.48,0,8.1,2.43,14.01,8.16,19.58,17.57,17.1,34.69,34.67,52.15,51.89,6.05,5.97,9.09,12.72,8.81,21.32-.37,11.68-.72,23.42,.03,35.06,.48,7.39,3,14.65,4.59,21.98,.6,2.75,1.61,5.52,1.61,8.29,.11,57.32,.1,114.64,.09,171.96,0,1.37-.3,2.75-.57,5.12-16.11,0-31.98,.13-47.84-.22-1.4-.03-3.72-3.09-3.91-4.93-.53-5.08-.16-10.25-.16-15.38,0-51.05-.15-102.09,.21-153.13,.04-5.61,3.05-11.2,4.61-16.81,.82-2.94,2.03-5.91,2.13-8.89,.33-10.25,.84-20.55,.04-30.74-.36-4.6-2.62-9.97-5.8-13.28-17.19-17.88-34.77-35.4-52.59-52.65-7.45-7.21-10.98-15.19-10.95-25.69,.22-73.57,.05-147.14,.04-220.71-.02-112.92-.02-225.84,0-338.76,.03-151.42,0-302.84,.28-454.25,.02-11.16-3.77-19.1-11.79-26.86-27.26-26.35-54.08-53.19-80.3-80.57-4.6-4.8-5.8-13.02-8.02-19.84-.84-2.58-.57-5.74-.07-8.5,3.61-20.07-5.26-33.87-19.51-47.51-43.25-41.39-85.13-84.2-127.82-126.19-8.71-8.56-12.72-17.9-12.57-30.28,.51-42.77,.06-85.55,.32-128.32,.05-7.83-2.55-12.52-9.71-16.07-18.87-9.35-28.26-25.46-31.46-45.95-.72-4.65-3.16-9.78-6.4-13.15-17.41-18.07-35.11-35.87-53.25-53.2-3.47-3.32-9.32-5.58-14.18-5.76-17.94-.7-35.92-.54-53.88-.26-7.72,.12-13.57-2.6-18.93-8.01-23.06-23.31-46.22-46.53-69.62-69.49-6.18-6.07-8.86-12.96-8.76-21.34,.35-30.49,.39-60.99,1.1-91.47,.25-10.91-2.16-19.59-10.67-27.35-14.52-13.25-28.22-27.42-41.74-41.71-5.2-5.49-9.46-6.82-16.86-3.94-37.8,14.72-67.23-9.11-77.96-31.99-13.69-29.18,1.09-78.43,48.26-85.3,45.45-6.62,83.93,41.9,63.79,84.33-4.38,9.24-2.74,14.47,4.28,21.03,15.83,14.78,30.7,30.58,46.24,45.67,6.97,6.77,10.26,14.26,10.13,24.22-.42,32.79-.43,65.59,.23,98.37,.11,5.62,2.89,12.44,6.76,16.5,18.23,19.21,37.35,37.57,55.96,56.44,5.75,5.83,12.01,8.69,20.44,8.44,17.09-.51,34.25-.8,51.3,.21,6.17,.37,13.45,3.28,17.9,7.5,17.75,16.82,34.58,34.61,52.4,52.7,3.53-4.21,6.16-7.41,8.86-10.55,8.48-9.89,19.47-15.75,31.93-18.54,5.7-1.27,7.55-4.04,7.34-9.4-.21-5.41,.85-11.04-.31-16.2-1.29-5.76-3.1-12.44-7.02-16.41-48.5-49.09-97.31-97.87-146.36-146.41-6.01-5.95-9.32-11.84-8.12-20.24,.4-2.79-.21-5.73,.12-8.54,.94-8.17-1.74-12.67-10.26-15.64-15.76-5.49-23.76-21.82-20.81-38.76,2.66-15.27,16.96-27.58,33.07-28.45,16.04-.86,30.95,9.81,35.41,25.35,4.45,15.52-2.05,33.39-16.28,40.31-7.32,3.56-8.23,8.09-8.83,15.18-1,11.93,3.47,19.99,11.84,28.22,47.16,46.38,93.64,93.44,140.62,139.99,7.76,7.69,11.07,15.83,9.48,26.71-.88,6.06-.45,12.59,.88,18.58,.56,2.53,4.65,5.32,7.64,6.11,23.08,6.13,37.54,21.04,43.76,43.56,9.01,32.64-10.04,65.39-43.05,74.28-6.87,1.85-8.99,4.69-8.94,11.62,.29,41.63-.02,83.27,.37,124.9,.04,4.6,1.97,10.4,5.11,13.59,40.65,41.2,81.67,82.04,122.62,122.95,.77,.77,1.75,1.32,3.79,2.84v-122.5c-4.33,0-8.79,.05-13.24,0-40.64-.53-73.02-31.75-75.22-72.51-2.18-40.44,26.92-75.52,66.86-80.61,31.54-4.01,62.32,11.17,77.13,38.03,16.11,29.23,13.24,62.08-8.07,87.7-5.21,6.26-7.54,12.85-7.52,21.02,.2,61.88,.19,123.76,.02,185.64-.03,9.12,2.59,16.39,9.28,22.83,14.59,14.03,28.68,28.58,43.03,42.87,2.17,2.16,4.59,4.06,8.2,7.22,.39-4.01,.82-6.41,.82-8.8,.07-131.46,.05-262.91,.24-394.37,.01-9.2-2.88-16.29-9.42-22.78-42.89-42.59-85.47-85.5-128.39-128.08-7.4-7.34-10.94-15.4-10.69-25.82,.42-17.1-.27-34.23,.29-51.32,.27-8.39-2.29-14.55-8.22-20.43-39.9-39.54-79.41-79.47-119.39-118.92-7.03-6.94-10.71-14.03-9.95-24.03,.73-9.64,2.67-20.36-.61-28.79-3.02-7.78-11.58-14.06-18.87-19.4-20.67-15.14-28.39-34.89-24.16-59.9,2.52-14.92-2.88-26.25-14.18-36.8-26.66-24.9-52.12-51.08-78.07-76.73-1.61-1.59-3.27-3.13-3.66-3.49-8.84,2.55-16.51,6.3-24.36,6.74-21.14,1.16-36.9-15.47-36-36.51,.9-20.97,18.04-34.97,40.41-33.02,18.54,1.62,32.84,20.4,28.97,40.09-1.71,8.71,.97,13.9,6.65,19.47,28.29,27.74,56.31,55.77,84.6,83.51,6.08,5.96,9.21,12.36,8.76,21.15-.62,12.23-.24,24.52,.01,36.78,.07,3.32,.1,7.68,2.06,9.73,8.72,9.14,18.13,17.62,28.07,27.08,.2-3.66,.49-6.65,.49-9.64,.02-86.69-.07-173.38,.16-260.07,.02-7.25-1.87-10.99-8.98-13.85-15.17-6.1-22.18-20.39-20.03-37.69,1.71-13.73,13.72-26.13,27.89-28.78,14.84-2.78,30.74,4.66,37.73,17.66,7.34,13.63,4.94,31.01-5.85,41.87-1.59,1.6-3.28,3.56-5.29,4.21-10.96,3.54-12.8,11.29-12.76,21.9,.32,102.94,.33,205.89-.12,308.83-.05,12.29,4.04,20.61,15.29,27.21,.46-3.58,1.17-6.52,1.16-9.46-.14-47.04-.55-94.07-.28-141.1,.03-4.77,3.07-10.4,6.41-14.11,8.94-9.96,18.67-19.22,28.34-28.49,3.79-3.63,4.76-6.6,2.25-11.77-7.72-15.92-4.43-31.22,8.29-42.63,10.96-9.83,27.72-11.25,41.39-3.5,12.49,7.08,19.22,23.77,15.9,39.4-3.85,18.11-24.68,30.5-43.01,24.61-7.21-2.32-11.73-.87-16.55,4.27-7.99,8.52-16.86,16.23-24.49,25.04-3.25,3.75-6.03,9.4-6.07,14.22-.44,50.19-.38,100.38-.07,150.56,.03,4.13,1.87,9.31,4.7,12.2,28.54,29.12,57.46,57.86,86.31,86.68,.91,.91,2.15,1.49,5,3.43,0-4.55,0-7.48,0-10.41-.02-38.5-.22-77,.12-115.49,.06-7.13-2.23-10.36-8.83-13.06-20.91-8.55-31.95-27.57-30.85-51.24,.91-19.43,15.32-37.95,34.67-44.53,19.62-6.67,42.2-.39,55.86,15.54,20.86,24.32,14.09,62.55-14.23,77.75-7.83,4.2-10.74,9.43-10.7,18.27,.3,66.44,.23,132.89,.05,199.33-.02,8,2.49,14.03,8.25,19.65,19.8,19.31,39.2,39.03,58.77,58.56,1.49,1.49,3.19,2.77,5.84,5.04,.43-3.96,.92-6.43,.92-8.89-.02-34.5-.2-69-.09-103.51,.02-5.84-1.53-9.07-7.48-11.42-16.21-6.4-24.24-23.36-20.26-40.72,3.53-15.42,18.17-26.8,34.45-26.78,16.63,.03,31.54,12.43,34.57,28.74,3.02,16.28-5.58,32.87-21.02,38.86-5.53,2.15-7.42,5.15-7.41,10.73,.01,40.78-.18,81.55-.16,122.33,0,2.39,.58,5.49,2.12,7.06,10.29,10.53,20.91,20.74,32.8,32.41,.33-5.56,1.06-9.67,.73-13.69-.92-11.1,3.18-19.55,11.14-27.3,23.7-23.08,47.13-46.43,70.04-70.29,4.08-4.24,7.1-11.34,7.24-17.21,.72-28.21,.7-56.46-.08-84.67-.16-5.84-3.29-12.86-7.37-17.11-22.31-23.24-45.24-45.89-68.19-68.49-6.11-6.01-8.97-12.67-8.88-21.25,.37-35.92,.24-71.85,.69-107.77,.11-8.89-2.53-15.7-8.94-22.01-38.23-37.56-76-75.59-114.33-113.04-9.25-9.04-13.1-18.58-12.74-31.74,.95-34.48,.12-69,.51-103.51,.09-8.2-2.45-13.01-9.99-16.7-15.92-7.78-25.64-25.16-24.17-41.04,1.87-20.2,14.16-35.95,32.08-41.12,22.96-6.62,46.52,4.99,54.99,27.12,8.44,22.07-1.41,46.93-23.56,56.21-8.44,3.54-10.57,8.03-10.46,16.59,.43,32.78,.32,65.58-.13,98.37-.13,9.5,2.51,16.61,9.45,23.42,33.19,32.54,65.89,65.57,98.77,98.42,1.88,1.88,3.84,3.67,5.76,5.5,.73-.29,1.47-.58,2.2-.86,0-3.26,0-6.53,0-9.79-.02-36.22-.32-72.44,.15-108.65,.11-8.45-2.19-12.06-10.49-15.01-27.63-9.81-40.56-32.34-40.5-58.34,.06-27.45,19.23-50.7,45.17-57.64,30.92-8.27,62.87,8.52,73.55,38.65,10.58,29.87-3.29,62.95-32.48,75.57-7.49,3.24-10.04,7.11-10.01,15.18,.28,86.4,.26,172.81,.05,259.21-.02,9.5,2.68,16.85,9.66,23.48,14.26,13.54,27.91,27.73,41.86,41.61,1.78,1.77,3.8,3.31,7.16,6.2,.29-4.11,.64-6.71,.64-9.32-.03-56.17-.02-112.35-.24-168.52-.04-10.01,3.09-18.05,10.29-25.17,31.62-31.28,62.88-62.94,94.53-94.2,6.12-6.05,9.04-12.54,8.93-21.15-.32-24.45-.2-48.91-.1-73.37,.04-8.6-1.71-14.1-11.67-17.52-32.83-11.25-52.76-43.75-49.84-78.29,2.97-35,27.48-62.53,61.75-69.41,1.72-.34,3.33-1.18,5-1.79,6.84,0,13.69,0,20.53,0Zm-48.58,77.43c0,20.98,17.19,38.26,37.98,38.17,21.15-.09,38.17-16.9,38.33-37.85,.16-21.29-17.08-38.57-38.48-38.57-20.91,0-37.83,17.11-37.84,38.26Zm-330.32,869.24c-.02,21.44,17.1,38.67,38.28,38.51,20.92-.15,37.97-17.2,37.99-37.98,.02-21.12-17.6-38.91-38.32-38.69-20.7,.21-37.93,17.54-37.95,38.17ZM1520.52,253.03c-.12-19.3-16.16-35.02-35.6-34.89-18.99,.13-34.74,15.92-34.75,34.85-.01,19.98,15.97,36.07,35.57,35.8,19.3-.26,34.9-16.3,34.78-35.77Zm-894.28,494.39c-.08,19.17,15.93,35.37,35.13,35.57,19.05,.2,35.41-16.04,35.5-35.22,.08-19.37-15.79-35.37-35.13-35.41-19.41-.04-35.42,15.78-35.5,35.06ZM285.69,327.14c-19.24,.15-35.35,16.55-35,35.62,.35,19.18,16.93,35.45,35.74,35.08,19.16-.38,35.25-16.79,35.14-35.81-.11-18.91-16.69-35.03-35.89-34.88Zm737.77,856.65c19.71,.14,35.73-15.14,36.08-34.42,.35-19.18-16.5-36.17-35.75-36.06-18.76,.11-34.61,15.97-34.86,34.88-.26,19.89,14.84,35.45,34.54,35.59Zm210.98-349.75c-19.61-.32-35.84,14.92-36.37,34.16-.53,19.19,16.13,36.35,35.37,36.42,18.81,.07,34.83-15.69,35.15-34.57,.34-20-14.54-35.69-34.15-36ZM916.25,58.59c-19.52-.19-35.21,15.36-35.28,34.99-.07,19.61,15.53,35.62,34.8,35.71,18.89,.09,35.62-16.37,35.79-35.22,.18-18.94-16.1-35.29-35.31-35.48ZM749.35,2.58c.13,17.68,15.48,32.77,32.9,32.33,17.42-.44,31.72-15.14,31.75-32.65,.04-17.28-14.8-32.13-32.12-32.15-17.99-.02-32.66,14.62-32.53,32.48Zm15.28,385.46c14.28,.18,26.42-11.71,26.36-25.81-.06-13.38-12.36-25.73-25.77-25.87-13.52-.14-25.55,11.86-25.75,25.68-.2,13.97,11.27,25.82,25.16,26Zm302.96,431.72c-.03-12.19-10.89-22.93-23.12-22.86-12.04,.07-23.09,11.34-22.79,23.22,.31,12.12,11.43,22.62,23.65,22.34,11.95-.27,22.28-10.81,22.25-22.71ZM451.47,141.23c-11.99-.12-22.89,10.83-22.93,23.02-.03,11.8,10.31,22.52,22.15,22.94,11.75,.42,23.23-10.61,23.52-22.59,.28-11.76-10.9-23.25-22.74-23.37Zm670.33,261.56c-12.78,.13-23.08,10.51-22.67,22.86,.39,11.85,11.01,22.18,22.84,22.23,12.24,.04,23.13-10.7,23.08-22.78-.05-12.33-10.59-22.44-23.25-22.3Zm56.48-120.71c12.65-.06,23.05-10.44,22.82-22.78-.23-12.05-10.47-22.2-22.53-22.32-12.49-.13-23.21,10.24-23.29,22.49-.07,12.36,10.41,22.68,23,22.62ZM497.62,446.17c12.2,0,23-10.84,22.87-22.96-.14-12.22-10.94-22.61-23.37-22.48-12.17,.12-22.06,10.12-22.21,22.47-.16,12.37,10.33,22.97,22.72,22.98Zm124.53-371.39c12.25-.1,22.82-10.97,22.59-23.23-.23-12.25-11.19-22.74-23.43-22.39-11.87,.33-22.19,10.95-22.19,22.83,0,12.29,10.72,22.9,23.03,22.79Zm91.44,120.81c-12.87-.1-22.64,9.68-22.59,22.62,.04,12.38,9.71,22.41,21.84,22.66,12.52,.26,23.13-9.84,23.36-22.26,.23-12.27-10.23-22.92-22.61-23.02Zm557.01,36.71c12.5,.05,22.82-10.19,22.9-22.7,.07-12.47-10.19-22.42-23.04-22.35-12.37,.07-22.41,9.95-22.41,22.05,0,12.67,10.09,22.96,22.55,23Zm-388.31,319.15c0-12.37-9.7-22.15-22.12-22.31-12.5-.17-23.13,10.13-23.14,22.43,0,12.32,10.52,22.89,22.83,22.92,12.41,.03,22.44-10.26,22.43-23.04Zm111.08,351.76c12.81-.12,22.59-10.16,22.36-22.95-.22-12.01-10.52-22.12-22.57-22.16-12.37-.04-22.99,10.55-22.86,22.8,.13,12.57,10.33,22.43,23.08,22.31Zm306.57-613.3c.08,12.56,10.38,22.76,22.88,22.66,12.05-.1,22.68-11.22,22.37-23.41-.3-12.01-10.49-21.8-22.77-21.89-12.95-.1-22.57,9.59-22.48,22.65Z"/><path class="cls-3" d="M1697.68,769.34c-5.42,9.15-9.27,19.86-16.57,27.12-15.27,15.2-39.61,16.68-57.51,4.86-5.44-3.59-8.23-2.47-12.14,1.54-16.11,16.54-32.55,32.76-48.63,49.34-6.32,6.52-13.19,10.12-22.65,9.49-10.79-.72-21.69-.68-32.48,.04-4.4,.29-9.69,2.16-12.75,5.17-30.7,30.16-61.05,60.69-91.43,91.17-4.59,4.6-7.44,23.17-4.11,28.06,.99,1.46,3.73,2.38,5.69,2.42,10.26,.23,20.56,.54,30.78-.17,3.48-.24,7.38-2.73,10.02-5.3,16.34-15.91,32.49-32.02,48.45-48.31,5.33-5.44,11.09-8.08,18.89-7.9,18.24,.43,36.5-.17,54.74,.28,7.41,.18,9.97-2.13,10.01-9.67,.08-17.83,13.58-32.45,30.01-33.53,20.72-1.37,36.24,10.24,39.57,29.58,2.91,16.9-8.65,34.67-25.75,39.2-11.42,3.02-22.3,1.46-31.17-6.63-5.79-5.29-12.2-6.69-19.55-6.64-17.08,.11-34.17,.2-51.24-.08-7.6-.12-13.55,2.06-18.97,7.69-15.23,15.81-31.09,31.01-46.36,46.79-5.59,5.77-11.68,8.43-19.71,8.05-9.66-.45-19.37,.27-29.03-.17-6.79-.31-7.39,3.4-7.22,8.53,.16,4.68-.38,9.32,6.76,9.16,11.68-.27,23.42,.51,35.05-.3,4.34-.3,9.2-3,12.52-6.04,9.25-8.45,18.25-17.26,26.51-26.67,7-7.98,14.87-11.92,25.46-10.33,7.86,1.18,12.98-1.24,16.67-9.32,6.62-14.49,22.98-21.04,38.98-17.25,15.44,3.65,27.21,18.8,26.78,34.46-.46,16.89-10.95,29.92-27.25,33.89-15.65,3.8-31.55-3.43-39.13-17.39-2.23-4.11-4.86-10.04-8.41-10.99-8.35-2.22-16.94-.69-23.56,6.3-7.84,8.28-15.83,16.41-23.81,24.55-2.79,2.85-5.44,6.06-8.77,8.1-3.23,1.97-7.24,3.65-10.94,3.71-12.23,.21-24.49-.89-36.7-.41-5.02,.2-11.27,1.74-14.69,5.03-22.58,21.75-44.55,44.14-66.69,66.36-1.11,1.11-1.89,2.56-3.16,4.32,13.06,3.88,23.42,1.04,32.32-8.1,14.92-15.3,29.75-30.71,45.15-45.52,3.28-3.15,8.79-5.23,13.4-5.49,13.36-.75,26.8-.64,40.19-.22,6.86,.22,10.15-1.78,11.8-8.87,3.68-15.81,16.3-25.66,31.77-26.12,16.91-.5,30.59,8.8,35.36,24.02,4.72,15.07-.65,30.99-13.55,40.13-12.31,8.73-30.08,8.03-42.13-1.65-.89-.71-2.07-1.33-2.52-2.27-6.14-13.04-17.65-11.71-29.54-13-23.62-2.56-41.71,4-56.35,23.12-8.42,11-19.64,19.81-29.32,29.89-5.47,5.7-11.73,9.59-19.62,8.19-24.25-4.31-40.87,6.25-56.81,23.85-25.23,27.86-52.72,53.69-79.6,80.04-6.14,6.02-9.33,12.08-8.89,20.91,.7,13.94-.33,27.96,.4,41.9,.54,10.43-3.57,17.87-10.8,24.74-14.66,13.94-28.96,28.27-43.32,42.52-2.9,2.88-5.43,6.14-9.82,11.16,12.13,0,21.66-.03,31.2,0,14.54,.05,29.11,.77,43.6-.1,5.68-.34,12.35-2.88,16.49-6.69,14.46-13.27,27.69-27.88,42.04-41.28,7.31-6.83,10.79-14.17,9.67-24.08-.56-4.99-.1-10.1-.1-15.33-7.06,0-13.25,.68-19.24-.12-20.5-2.75-33.41-21.49-29.08-41.51,4.55-21.02,23.77-32.41,44.82-26.55,18.63,5.19,30.64,26.7,22.45,44.7-5.66,12.45-6.71,24.7-5.51,37.28,1.46,15.29-3.46,26.35-14.97,36.52-15.56,13.76-29.37,29.5-44.55,43.72-3.7,3.46-9.78,6.03-14.82,6.13-28.79,.57-57.6,.29-86.4,.23-6.81-.01-12.8,1.25-16.76,8.8,2.58,.37,4.4,.87,6.22,.87,34.79,.03,69.58,.14,104.37-.18,3.87-.04,8.78-1.53,11.42-4.15,32.78-32.53,64.98-65.64,97.97-97.95,6.27-6.14,3.56-10.9,1.94-16.77-5.11-18.55,5.64-37.81,23.93-43.01,18.62-5.29,38.14,4.94,43.38,23.38,3.85,13.56,1.46,26.26-9.19,36.11-11.06,10.24-24.39,12.18-38.12,6.65-5.31-2.14-8.08-1.28-11.74,2.41-33.3,33.63-66.61,67.26-100.36,100.44-3.57,3.51-9.91,5.84-15,5.9-39.63,.48-79.27,.45-118.9,.13-8.4-.07-14.75,2.67-20.47,8.51-14.75,15.05-29.54,30.08-44.69,44.73-6.21,6-8.69,12.56-8.68,21.2,.18,170.81,.14,341.62,.14,512.43,0,85.83,.09,171.67-.17,257.5-.03,8.97,2.7,15.53,9.1,21.83,30.48,29.99,60.48,60.48,90.88,90.57,6.52,6.45,9.88,13.47,9.48,22.74-.47,10.82-.02,21.67-.25,32.5-.12,5.51,1.83,9.11,5.95,13.14,4.06,3.98,7.9,10.47,7.95,15.91,.57,57.31,.37,114.63,.36,171.95,0,1.36-.35,2.73-.66,5.05-16.13,0-32.01,.18-47.87-.3-1.39-.04-3.74-4.35-3.8-6.72-.35-15.39-.19-30.79-.18-46.19,.01-39.92,.11-79.84-.02-119.77-.03-8.13,1.95-14.95,8.13-20.68,2.16-2.01,2.71-5.77,3.92-8.76,.2-.49-.04-1.14,.05-1.7,4.23-25.11-4.32-43.79-23.96-60.82-26.63-23.08-50.24-49.62-75.43-74.39-6.79-6.67-9.85-14.02-9.85-23.52,.13-215.86,.12-431.73,.13-647.59,0-47.62,.19-95.24-.13-142.86-.06-9.51,2.63-16.61,9.52-23.42,48.25-47.72,96.06-95.89,144.24-143.67,6.56-6.51,9.8-13.45,9.54-22.68-.4-14.53-.92-29.14,.23-43.59,.52-6.51,3.38-14.27,7.86-18.82,54.27-55,109.03-109.51,163.7-164.11,7.66-7.65,16.21-14.55,22.97-22.91,3.98-4.91,7.37-12.01,7.41-18.14,.47-78.99,.18-157.97,.41-236.96,.02-8.85-2.23-12.62-11.81-14.45-28.82-5.51-47.74-33.59-46.76-60.28,1.02-27.99,19.97-52.73,47.63-58.02,9.03-1.73,11.66-5.69,11.51-14.26-.49-27.65-.41-55.3-.64-82.95-.07-8.1,2.46-14.85,8.34-20.69,32.18-31.94,64.14-64.09,96.33-96.01,4.57-4.53,6.75-9.06,6.21-15.8-1.33-16.6,8.65-30.73,23.87-35.27,16.08-4.8,33.46,1.88,41.25,15.86,8.18,14.69,5.5,32.43-6.63,43.82-11.76,11.04-29.51,12.39-43.4,3.23-2.6-1.71-5-3.73-9.19-6.89-9.24,9.72-18.42,19.73-27.98,29.38-22.48,22.68-45.06,45.26-67.77,67.71-5.39,5.33-8.12,11.1-8.02,18.9,.34,27.37,.32,54.75,.05,82.12-.07,6.63,1.8,10.17,8.49,12.49,23.19,8.03,37.84,24.17,41.05,48.79,3.46,26.51-6.26,47.53-29.58,61.39-5.62,3.34-7.93,7.57-7.91,13.89,.17,53.88,.23,107.77,.36,161.65,0,1.32,.57,2.63,1.17,5.18,8.46-6.04,14.64-11.26,14.48-22.52-.57-40.77-.13-81.55-.32-122.33-.03-7.07,2.19-12.43,7.24-17.4,9.31-9.15,21.4-17.47,26.1-28.73,4.58-10.99,1.42-25.23,1.53-38.04,.11-12.55,.58-25.12-.18-37.62-.28-4.62-2.59-10.01-5.74-13.41-10.86-11.68-22.48-22.65-33.84-33.87-8.66-8.55-9.09-30.29-.72-39.24,.97-1.04,1.92-2.14,3.05-2.99,10.34-7.83,15.15-16.03,10.43-30.52-5.14-15.81,10.26-34.16,28.11-37.66,17.83-3.5,37.01,8.63,40.66,25.82,3.11,14.63-.64,27.35-12.41,36.62-11.19,8.82-24.03,10.27-36.9,3.78-5.26-2.65-8.48-1.52-11.71,2.57-1.41,1.78-2.84,3.59-4.51,5.13-12.57,11.57-12.95,20.32-1.08,32.35,10.21,10.35,20.98,20.19,30.63,31.04,3.6,4.04,6.53,10.24,6.66,15.54,.67,26.5,.6,53.04,.04,79.55-.1,4.82-2.71,10.43-5.91,14.18-7.2,8.43-15.71,15.73-23.21,23.93-2.48,2.71-4.88,6.78-4.92,10.24-.33,37.07-.19,74.14-.13,111.21,0,1.05,.44,2.1,.9,4.22,2-1.6,3.49-2.6,4.74-3.83,15.47-15.16,30.81-30.46,46.4-45.49,4.87-4.69,6.86-9.84,6.84-16.65-.18-67.01,.07-134.02-.28-201.03-.06-11.54,4-19.55,12.33-27.46,23.77-22.58,46.6-46.14,69.85-69.26,4.2-4.18,4.06-8.49,2.51-14.01-9.39-33.47,9.02-65.79,42.3-72.74,22.07-4.61,42.3,.82,56.96,18.94,15.06,18.62,18.03,39.9,7.91,61.72-10.02,21.61-27.89,32.08-51.75,32.8-15.67,.47-28.69-5.65-41.51-16.12-8.06,8.43-15.77,16.79-23.79,24.82-16.31,16.34-33.01,32.3-49.03,48.92-3.16,3.28-5.57,8.84-5.59,13.36-.36,64.73-.15,129.46-.38,194.19-.03,7.08,2.28,8.55,9.17,9.35,20.75,2.4,37.07-2.63,50.47-20.05,9.98-12.98,23.5-23.18,34.83-35.2,2.59-2.75,4.35-8.21,3.63-11.85-5.92-29.98,7.06-53.42,34.23-60.4,28.24-7.25,54.91,12.06,59.05,36.67,.08,.47,.7,.85,1.06,1.27v17.11Zm-71.84-297.96c-21.32-.09-39.12,17-39.43,37.86-.32,21.25,17.52,39.26,38.97,39.34,20.57,.08,38.04-17.28,38.27-38.03,.24-21.43-16.78-39.07-37.81-39.16Zm-215.36,227.78c.03-19.11-16.4-35.65-35.3-35.51-19.05,.13-35.36,16.55-35.34,35.58,.02,19.19,16.19,35.32,35.4,35.32,19.22,0,35.21-16.06,35.24-35.39Zm209.94,61.93c.05,15.51,13.24,28.68,28.83,28.8,15.74,.12,29.72-13.79,29.46-29.31-.26-15.28-13.94-28.88-29.11-28.92-15.77-.05-29.23,13.52-29.18,29.44Zm-253.19,477.03c-11.94-.25-22.33,9.86-22.67,22.06-.35,12.84,9.19,23.36,21.69,23.93,11.85,.54,23.1-10.24,23.46-22.49,.36-11.98-10.42-23.24-22.49-23.5Zm156.19-189.71c.12-12.55-10.07-22.86-22.64-22.9-12.16-.04-22.47,9.9-22.75,21.94-.3,12.53,9.83,23.16,22.22,23.34,12.58,.18,23.06-9.94,23.17-22.38Zm-44.54-505.49c.07-12.2-10.81-23-22.99-22.81-12.18,.19-22.2,10.23-22.37,22.4-.17,12.49,10.03,23.05,22.47,23.28,12.17,.22,22.82-10.43,22.89-22.87Zm62.19-133.94c.13-12.41-10.27-23.1-22.56-23.18-12.32-.09-22.91,10.44-22.93,22.79-.02,11.99,10.12,22.35,22.17,22.64,12.61,.3,23.2-9.8,23.33-22.25Zm-302.23,835.39c-.11,12.74,9.94,23.12,22.36,23.1,12.43-.02,22.69-10.42,22.66-22.97-.03-12.05-10.05-22.3-22.13-22.63-12.53-.34-22.78,9.73-22.89,22.5Zm335.84-260.65c-.09-12.41-10.65-22.85-22.96-22.69-12.54,.17-22.65,10.56-22.47,23.09,.18,12.53,10.45,22.25,23.33,22.1,12.04-.15,22.19-10.48,22.1-22.5Zm60.22-65.34c-.14-12.3-9.98-22.29-22.11-22.44-12.2-.15-22.93,10.46-22.98,22.71-.04,12.62,10.07,22.58,22.83,22.47,13.16-.11,22.41-9.56,22.26-22.74Z"/><path class="cls-3" d="M157.71,623.9c4.63-9.59,7.87-20.23,14.16-28.57,14.13-18.73,41.36-25.4,63.22-17.23,24.19,9.04,38.77,30.93,37.99,57.05-.71,24.05-16.77,45.21-39.63,52.25-13.58,4.18-15.33,11.2-5.05,21.51,28.38,28.48,56.71,57.01,85.51,85.07,3.62,3.53,9.84,5.94,14.96,6.12,19.37,.7,38.78-.08,58.16,.5,4.59,.14,10.21,2.28,13.45,5.45,27.73,27.11,55.18,54.51,82.22,82.31,3.5,3.6,5.76,9.94,5.86,15.07,.57,29.93,.54,59.88,.2,89.81-.09,8.09,3.08,13.42,11.83,19.33,0-9.57,0-17.29,0-25,0-30.8,.3-61.6-.28-92.39-.1-5.06-2.87-11.24-6.45-14.89-31.56-32.15-63.46-63.97-95.63-95.51-3.24-3.18-8.81-5.34-13.41-5.54-15.37-.67-30.81,.23-46.17-.49-4.92-.23-10.67-2.52-14.34-5.79-9.14-8.12-17.12-17.51-25.93-26.02-3.84-3.71-8.28-6.98-12.92-9.62-15.6-8.85-22.74-23.87-18.53-40.03,4.33-16.6,17.96-26.93,35.15-26.64,15.56,.26,29.3,11.11,33.09,26.11,4.16,16.49-3.36,32.67-18.98,40.84-1.45,.76-2.89,1.56-4.98,2.69,7.87,8.04,15.04,16.01,22.99,23.1,2.36,2.11,6.88,2.4,10.43,2.46,15.39,.27,30.82-.28,46.18,.41,4.61,.21,10.23,2.29,13.46,5.47,34.58,33.98,68.92,68.2,102.84,102.83,3.67,3.75,5.9,10.52,5.96,15.92,.48,42.2,.38,84.41,.16,126.61-.04,7.88,2.8,13.61,10.3,19.2,.33-3.75,.75-6.34,.76-8.92,.03-52.76-.1-105.51,.15-158.27,.04-7.62-3.07-12.73-8.2-17.81-35.03-34.72-69.94-69.56-104.68-104.57-5.71-5.76-10.44-9.43-19.81-7.03-19,4.88-36.32-6.62-41.05-25.3-4.48-17.67,5.37-36.42,22.09-42.04,18.28-6.15,38.83,2.58,44.33,20.94,2.49,8.32,1.83,18.89-1.08,27.14-2.64,7.47-1.41,11.27,3.51,16.11,26.81,26.41,53.47,52.98,80.15,79.52,10.71,10.65,21.88,20.91,31.74,32.31,3.64,4.21,5.7,11.17,5.74,16.9,.42,57.89,.4,115.78,.15,173.67-.04,8.33,2.1,14.73,8.36,20.38,8.03,7.25,16.1,14.68,22.82,23.09,3.97,4.97,7.44,11.96,7.56,18.11,.55,29.04-.47,58.1-.06,87.14,.07,4.99,3.18,11.04,6.81,14.7,57.24,57.68,114.79,115.05,172.27,172.49,10.84,10.84,21.67,21.69,33.89,33.93,.69-4.79,1.52-7.93,1.52-11.06,.06-36.22-.05-72.43,.01-108.65,.01-7.25-2.3-12.98-7.66-18.16-15.57-15.06-30.88-30.42-45.95-45.98-4.75-4.9-8.76-6.22-15.59-3.61-14.98,5.72-30.47,.72-39.71-11.4-8.98-11.77-9.68-29.01-1.66-40.89,8.66-12.83,24.53-18.64,39.75-14.57,19.48,5.21,30.38,27.36,22.37,47.15-2.26,5.58-1.57,8.47,2.46,12.41,17.34,16.93,34.63,33.93,51.29,51.53,3.66,3.87,6.49,10.25,6.55,15.52,.52,43.34,.42,86.69,.18,130.03-.05,8.01,2.52,13.91,8.17,19.62,29.72,30.06,24.31,16.66,24.34,59.02,.16,256.94,.05,513.88,.2,770.82,0,10.72-3.35,19.01-11.06,26.53-28.98,28.27-57.49,57-86.36,85.39-5.27,5.18-7.9,10.69-7.18,18.21,.59,6.21,.24,12.54,.03,18.81-.27,8.07-.51,15.59,7.5,21.21,2.82,1.98,4.37,7.53,4.39,11.46,.29,57.89,.22,115.78,.2,173.67,0,1.09-.37,2.19-.68,3.86h-51.16c-.16-2.82-.48-5.84-.49-8.87-.02-54.75,.04-109.5-.03-164.26-.01-8.5,2.42-15.36,9.43-20.84,2.38-1.86,3.85-6.14,3.98-9.38,.47-11.96,.36-23.95,.16-35.92-.14-8.2,2.61-14.85,8.5-20.6,28.54-27.88,56.8-56.05,85.51-83.76,7.25-6.99,10.68-14.25,10.67-24.64-.27-233.84-.24-467.69-.17-701.53,0-21.64,.33-43.3,1.24-64.92,.53-12.59-3.59-21.81-12.78-30.81-46.23-45.3-91.85-91.22-137.45-137.16-6.28-6.33-12.74-9.26-21.81-9.06-26.22,.55-52.48-.16-78.7,.42-10.59,.23-18.54-3.3-25.76-10.67-25.51-26.08-51.25-51.95-76.97-77.82-6.22-6.26-13.17-11.85-18.95-18.47-3.97-4.54-6.87-4.8-12.18-2.17-19.49,9.66-38.99,9.45-57.71-2.28-22.5-14.1-32.29-42.9-23.43-68.12,9.06-25.81,33.13-40.36,62.04-37.5,25.37,2.51,45.66,22.92,49.44,49.15,1.78,12.35-.3,23.91-6.17,34.62-2.91,5.31-1.88,8.44,2.16,12.45,32.01,31.71,63.71,63.73,95.83,95.32,3.34,3.29,8.75,6.09,13.3,6.25,19.94,.68,39.91,.34,59.88,.24,2.42-.01,4.84-.82,8.92-1.57-3.1-3.36-5.07-5.64-7.19-7.76-20.74-20.79-41.38-41.7-62.35-62.25-7.21-7.07-10.47-14.89-10.31-25.08,.43-27.65,.43-55.33-.1-82.98-.09-4.86-2.31-10.86-5.65-14.29-26.69-27.34-53.71-54.36-81.12-80.98-3.62-3.52-9.92-5.95-15.01-6.01-35.06-.46-70.14-.21-105.21-.07-7.89,.03-14.09-2.82-19.67-8.48-21.61-21.94-43.68-43.43-65.14-65.51-4.9-5.04-8.88-4.99-14.95-2.84-27.91,9.88-57.19-.72-72.72-25.78-14.7-23.72-10.61-55.19,9.79-75.27,20.56-20.24,54.25-23,77.73-6.36,24,17,33.03,49.74,19.55,75.96-4.58,8.9-3.07,13.44,3.65,19.86,19.18,18.3,37.36,37.64,56.47,56.01,3.43,3.3,9.37,5.56,14.18,5.62,34.78,.47,69.58,.13,104.37,.39,6.06,.05,12.11,1.72,19.39,2.83,.16-1.53,.73-4.41,.74-7.29,.07-22.81,.45-45.64-.27-68.43-.17-5.35-2.85-11.83-6.56-15.66-24-24.78-48.71-48.88-72.94-73.44-5.74-5.81-12-7.31-19.96-7.01-18.5,.71-37.06,.81-55.57,.24-4.29-.13-9.36-3.04-12.57-6.19-31.08-30.61-61.99-61.4-92.48-92.6-3.52-3.61-5.5-9.92-5.84-15.14-.41-6.28-1.25-9.36-8.34-11.07-20.25-4.88-33.9-17.73-40.55-37.7-.88-2.64-2.02-5.2-3.04-7.8,0-6.27,0-12.55,0-18.82Zm279.21,525.09c.3-21.48-17.09-39.17-38.69-39.36-20.44-.18-37.96,17.07-38.51,37.9-.55,20.83,17.17,39.24,37.92,39.42,21.25,.18,38.99-16.97,39.28-37.96ZM254.17,632.67c.03-21.26-17.22-38.5-38.57-38.57-20.89-.07-39.01,17.83-38.96,38.5,.05,20.48,18.55,38.99,38.91,38.94,20.78-.06,38.59-17.98,38.62-38.86Zm3.05,241.44c-.02-19.52-15.05-34.86-34.27-34.97-19.96-.12-36.26,15.71-36.27,35.23,0,19.11,16.93,35.48,36.49,35.27,18.59-.2,34.06-16.35,34.04-35.53Zm104.77-169.24c-.57,12.3,9.61,23.18,22.03,23.55,12.23,.36,23.22-9.99,23.57-22.2,.34-11.97-9.59-22.35-21.79-22.77-13.12-.45-23.22,8.64-23.81,21.43Zm347.19,506.14c12.46,.11,23.25-10.25,23.35-22.43,.09-12.32-10.4-22.7-22.97-22.73-12.48-.03-23.07,10.53-22.88,22.81,.18,11.99,10.51,22.24,22.51,22.35ZM300.67,683.4c-12.93,.12-22.4,9.94-22.14,22.96,.24,12.23,10.25,22.06,22.47,22.07,12.32,.01,22.91-10.58,22.83-22.84-.08-12.55-10.28-22.32-23.16-22.19Z"/></g></g></g></g></g></svg>